<svg width="16" height="12" viewBox="0 0 16 12" fill="none" xmlns="http://www.w3.org/2000/svg">
<path d="M10.916 0.666668H5.08268C1.74935 0.666668 0.916016 1.5 0.916016 4.83333V11.15C1.54935 10.5917 2.38268 10.25 3.29102 10.25H14.2493C14.7077 10.25 15.0827 9.875 15.0827 9.41667V4.83333C15.0827 1.5 14.2493 0.666668 10.916 0.666668ZM8.83268 7.95833H4.66602C4.32435 7.95833 4.04102 7.675 4.04102 7.33333C4.04102 6.99167 4.32435 6.70833 4.66602 6.70833H8.83268C9.17435 6.70833 9.45768 6.99167 9.45768 7.33333C9.45768 7.675 9.17435 7.95833 8.83268 7.95833ZM11.3327 5.04167H4.66602C4.32435 5.04167 4.04102 4.75833 4.04102 4.41667C4.04102 4.075 4.32435 3.79167 4.66602 3.79167H11.3327C11.6743 3.79167 11.9577 4.075 11.9577 4.41667C11.9577 4.75833 11.6743 5.04167 11.3327 5.04167Z" fill="#8E98A8"/>
</svg>
