<svg width="18" height="18" viewBox="0 0 18 18" fill="none" xmlns="http://www.w3.org/2000/svg">
<path d="M12.491 0.666656H5.50768C2.47435 0.666656 0.666016 2.47499 0.666016 5.50832V12.4917C0.666016 15.525 2.47435 17.3333 5.50768 17.3333H9.90768C10.1993 17.3333 10.4077 17.0333 10.3743 16.7417C10.341 16.425 10.3577 16.05 10.4577 15.6167C10.4743 15.5583 10.4577 15.4917 10.4077 15.4417L10.2243 15.2583C9.51602 14.5417 9.25768 13.675 9.50768 12.8833C9.76602 12.1 10.4827 11.55 11.4743 11.3833L11.7243 11.3417L11.9493 10.8917C12.4077 9.95832 13.1577 9.41666 13.9993 9.41666C14.841 9.41666 15.591 9.95832 16.0493 10.8917L16.1743 11.15C16.2327 11.275 16.3493 11.3583 16.4827 11.3833C16.5577 11.4 16.6327 11.4167 16.7077 11.4333C16.9993 11.5083 17.3327 11.275 17.3327 10.9667V5.50832C17.3327 2.47499 15.5244 0.666656 12.491 0.666656ZM12.5493 6.46666L10.6243 8.94999C10.3827 9.25832 10.041 9.45832 9.64935 9.49999C9.26602 9.54999 8.87435 9.44166 8.57435 9.19999L7.04935 8.01666C6.99102 7.96666 6.92435 7.96666 6.89102 7.97499C6.85768 7.97499 6.79935 7.99166 6.74935 8.05832L4.76602 10.6333C4.64102 10.7917 4.45768 10.875 4.26602 10.875C4.13268 10.875 3.99935 10.8333 3.88268 10.7417C3.60768 10.5333 3.55768 10.1417 3.76602 9.86666L5.74935 7.29166C5.99102 6.98332 6.33268 6.78332 6.72435 6.73332C7.11602 6.68332 7.49935 6.79166 7.80768 7.03332L9.33268 8.23332C9.39102 8.28332 9.44935 8.27499 9.49102 8.27499C9.52435 8.27499 9.58268 8.25832 9.63268 8.19166L11.5577 5.70832C11.766 5.43332 12.1577 5.38332 12.4327 5.59999C12.716 5.80832 12.7577 6.19999 12.5493 6.46666Z" fill="#8E98A8"/>
</svg>
