<svg width="201" height="48" viewBox="0 0 201 48" fill="none" xmlns="http://www.w3.org/2000/svg">
<rect width="201" height="48" rx="6" fill="#E6E8EB"/>
<path d="M39.9326 26.45L40.1993 26.9917C40.3326 27.2583 40.6743 27.5083 40.9576 27.5583L41.3159 27.6167C42.4076 27.8 42.6576 28.6 41.8826 29.3833L41.5493 29.7167C41.3243 29.9417 41.2076 30.375 41.2743 30.6917L41.3159 30.8917C41.6159 32.2083 40.9159 32.7167 39.7743 32.025L39.5326 31.875C39.2409 31.7 38.7576 31.7 38.4659 31.875L38.2243 32.025C37.0743 32.7167 36.3826 32.2083 36.6826 30.8917L36.7243 30.6917C36.7909 30.3833 36.6743 29.9417 36.4493 29.7167L36.1159 29.3833C35.3409 28.5917 35.5909 27.8 36.6826 27.6167L37.0409 27.5583C37.3326 27.5083 37.6659 27.2583 37.7993 26.9917L38.0659 26.45C38.5826 25.4083 39.4159 25.4083 39.9326 26.45Z" fill="#393939"/>
<path d="M37.491 15.6667H30.5077C27.4743 15.6667 25.666 17.475 25.666 20.5083V27.4917C25.666 30.525 27.4743 32.3333 30.5077 32.3333H34.9077C35.1993 32.3333 35.4077 32.0333 35.3743 31.7417C35.341 31.425 35.3577 31.05 35.4577 30.6167C35.4743 30.5583 35.4577 30.4917 35.4077 30.4417L35.2243 30.2583C34.516 29.5417 34.2577 28.675 34.5077 27.8833C34.766 27.1 35.4827 26.55 36.4743 26.3833L36.7243 26.3417L36.9493 25.8917C37.4077 24.9583 38.1577 24.4167 38.9993 24.4167C39.841 24.4167 40.591 24.9583 41.0493 25.8917L41.1743 26.15C41.2327 26.275 41.3493 26.3583 41.4827 26.3833C41.5577 26.4 41.6327 26.4167 41.7077 26.4333C41.9993 26.5083 42.3327 26.275 42.3327 25.9667V20.5083C42.3327 17.475 40.5244 15.6667 37.491 15.6667ZM37.5493 21.4667L35.6243 23.95C35.3827 24.2583 35.041 24.4583 34.6493 24.5C34.266 24.55 33.8743 24.4417 33.5743 24.2L32.0493 23.0167C31.991 22.9667 31.9243 22.9667 31.891 22.975C31.8577 22.975 31.7993 22.9917 31.7493 23.0583L29.766 25.6333C29.641 25.7917 29.4577 25.875 29.266 25.875C29.1327 25.875 28.9993 25.8333 28.8827 25.7417C28.6077 25.5333 28.5577 25.1417 28.766 24.8667L30.7493 22.2917C30.991 21.9833 31.3327 21.7833 31.7243 21.7333C32.116 21.6833 32.4993 21.7917 32.8077 22.0333L34.3327 23.2333C34.391 23.2833 34.4493 23.275 34.491 23.275C34.5243 23.275 34.5827 23.2583 34.6327 23.1917L36.5577 20.7083C36.766 20.4333 37.1577 20.3833 37.4327 20.6C37.716 20.8083 37.7577 21.2 37.5493 21.4667Z" fill="#393939"/>
<path d="M57.162 29V18.57H60.578C61.6327 18.57 62.552 18.7847 63.336 19.214C64.12 19.6433 64.7267 20.25 65.156 21.034C65.5853 21.8087 65.8 22.7233 65.8 23.778C65.8 24.8233 65.5853 25.738 65.156 26.522C64.7267 27.306 64.12 27.9173 63.336 28.356C62.552 28.7853 61.6327 29 60.578 29H57.162ZM58.534 27.74H60.592C61.3667 27.74 62.034 27.5767 62.594 27.25C63.1633 26.9233 63.602 26.466 63.91 25.878C64.218 25.2807 64.372 24.5807 64.372 23.778C64.372 22.966 64.2133 22.266 63.896 21.678C63.588 21.09 63.1493 20.6373 62.58 20.32C62.02 19.9933 61.3573 19.83 60.592 19.83H58.534V27.74ZM69.5013 29.168C69.0066 29.168 68.5679 29.0793 68.1853 28.902C67.8119 28.7153 67.5179 28.4633 67.3033 28.146C67.0886 27.8193 66.9813 27.446 66.9813 27.026C66.9813 26.6247 67.0653 26.2653 67.2333 25.948C67.4106 25.6213 67.6813 25.346 68.0453 25.122C68.4186 24.898 68.8853 24.7393 69.4453 24.646L72.2453 24.184V25.276L69.7393 25.696C69.2539 25.78 68.8993 25.934 68.6753 26.158C68.4606 26.382 68.3533 26.6573 68.3533 26.984C68.3533 27.292 68.4746 27.5487 68.7173 27.754C68.9693 27.9593 69.2819 28.062 69.6553 28.062C70.1313 28.062 70.5419 27.964 70.8873 27.768C71.2419 27.5627 71.5173 27.2873 71.7133 26.942C71.9186 26.5967 72.0213 26.214 72.0213 25.794V23.876C72.0213 23.4653 71.8673 23.134 71.5593 22.882C71.2606 22.6207 70.8639 22.49 70.3693 22.49C69.9399 22.49 69.5573 22.602 69.2213 22.826C68.8946 23.0407 68.6519 23.33 68.4933 23.694L67.3593 23.106C67.4993 22.7607 67.7233 22.4527 68.0312 22.182C68.3393 21.902 68.6986 21.6827 69.1093 21.524C69.5199 21.3653 69.9493 21.286 70.3972 21.286C70.9759 21.286 71.4846 21.398 71.9233 21.622C72.3619 21.8367 72.7026 22.14 72.9453 22.532C73.1973 22.9147 73.3233 23.3627 73.3233 23.876V29H72.0493V27.572L72.2873 27.656C72.1286 27.9547 71.9139 28.216 71.6433 28.44C71.3726 28.664 71.0553 28.8413 70.6913 28.972C70.3273 29.1027 69.9306 29.168 69.5013 29.168ZM78.044 29.168C77.288 29.168 76.63 28.9813 76.07 28.608C75.51 28.2347 75.1133 27.7307 74.88 27.096L75.916 26.592C76.1307 27.04 76.4247 27.3947 76.798 27.656C77.1713 27.9173 77.5867 28.048 78.044 28.048C78.4547 28.048 78.7953 27.95 79.066 27.754C79.3367 27.558 79.472 27.3013 79.472 26.984C79.472 26.76 79.4067 26.5827 79.276 26.452C79.1547 26.312 79.0053 26.2047 78.828 26.13C78.6507 26.046 78.4873 25.9853 78.338 25.948L77.204 25.626C76.5227 25.43 76.0233 25.15 75.706 24.786C75.398 24.422 75.244 23.9973 75.244 23.512C75.244 23.064 75.356 22.6767 75.58 22.35C75.8133 22.014 76.126 21.7527 76.518 21.566C76.9193 21.3793 77.3673 21.286 77.862 21.286C78.5247 21.286 79.1173 21.454 79.64 21.79C80.172 22.126 80.55 22.5973 80.774 23.204L79.71 23.694C79.542 23.302 79.29 22.994 78.954 22.77C78.618 22.5367 78.24 22.42 77.82 22.42C77.4373 22.42 77.134 22.518 76.91 22.714C76.686 22.9007 76.574 23.1387 76.574 23.428C76.574 23.6427 76.63 23.82 76.742 23.96C76.854 24.0907 76.9893 24.1933 77.148 24.268C77.3067 24.3333 77.4607 24.3893 77.61 24.436L78.842 24.8C79.458 24.9773 79.934 25.2527 80.27 25.626C80.6153 25.9993 80.788 26.4473 80.788 26.97C80.788 27.39 80.6713 27.768 80.438 28.104C80.2047 28.44 79.8827 28.7013 79.472 28.888C79.0613 29.0747 78.5853 29.168 78.044 29.168ZM82.4924 29V18.402H83.7944V22.924L83.5564 22.798C83.743 22.322 84.0417 21.9533 84.4524 21.692C84.8724 21.4213 85.3624 21.286 85.9224 21.286C86.4637 21.286 86.9444 21.4073 87.3644 21.65C87.7937 21.8927 88.1297 22.2287 88.3724 22.658C88.6244 23.0873 88.7504 23.5727 88.7504 24.114V29H87.4344V24.534C87.4344 24.114 87.355 23.7593 87.1964 23.47C87.047 23.1807 86.837 22.9567 86.5664 22.798C86.2957 22.63 85.983 22.546 85.6284 22.546C85.283 22.546 84.9704 22.63 84.6904 22.798C84.4104 22.9567 84.191 23.1853 84.0324 23.484C83.8737 23.7733 83.7944 24.1233 83.7944 24.534V29H82.4924ZM94.5195 29.168C93.9128 29.168 93.3575 29.0327 92.8535 28.762C92.3588 28.4913 91.9761 28.1087 91.7055 27.614L91.8875 27.39V29H90.6135V18.402H91.9155V23.078L91.7195 22.756C91.9995 22.308 92.3821 21.9533 92.8675 21.692C93.3528 21.4213 93.9081 21.286 94.5335 21.286C95.2428 21.286 95.8775 21.4587 96.4375 21.804C97.0068 22.1493 97.4548 22.6207 97.7815 23.218C98.1081 23.806 98.2715 24.478 98.2715 25.234C98.2715 25.9713 98.1081 26.6387 97.7815 27.236C97.4548 27.8333 97.0068 28.3047 96.4375 28.65C95.8775 28.9953 95.2381 29.168 94.5195 29.168ZM94.4215 27.908C94.8975 27.908 95.3221 27.7913 95.6955 27.558C96.0688 27.3247 96.3581 27.0073 96.5635 26.606C96.7781 26.1953 96.8855 25.738 96.8855 25.234C96.8855 24.7113 96.7781 24.254 96.5635 23.862C96.3581 23.4607 96.0688 23.1433 95.6955 22.91C95.3221 22.6673 94.8975 22.546 94.4215 22.546C93.9455 22.546 93.5161 22.6627 93.1335 22.896C92.7601 23.1293 92.4615 23.4513 92.2375 23.862C92.0228 24.2633 91.9155 24.7207 91.9155 25.234C91.9155 25.738 92.0228 26.1953 92.2375 26.606C92.4615 27.0073 92.7601 27.3247 93.1335 27.558C93.5161 27.7913 93.9455 27.908 94.4215 27.908ZM103.563 29.168C102.835 29.168 102.177 29 101.589 28.664C101.001 28.3187 100.534 27.8473 100.189 27.25C99.8434 26.6527 99.6707 25.976 99.6707 25.22C99.6707 24.464 99.8387 23.792 100.175 23.204C100.52 22.616 100.987 22.1493 101.575 21.804C102.163 21.4587 102.825 21.286 103.563 21.286C104.291 21.286 104.949 21.4587 105.537 21.804C106.125 22.14 106.587 22.602 106.923 23.19C107.268 23.778 107.441 24.4547 107.441 25.22C107.441 25.9853 107.263 26.6667 106.909 27.264C106.554 27.852 106.083 28.3187 105.495 28.664C104.916 29 104.272 29.168 103.563 29.168ZM103.563 27.908C104.029 27.908 104.449 27.7913 104.823 27.558C105.205 27.3247 105.504 27.0027 105.719 26.592C105.943 26.1813 106.055 25.724 106.055 25.22C106.055 24.7067 105.943 24.254 105.719 23.862C105.504 23.4607 105.205 23.1433 104.823 22.91C104.449 22.6673 104.029 22.546 103.563 22.546C103.087 22.546 102.657 22.6673 102.275 22.91C101.901 23.1433 101.603 23.4607 101.379 23.862C101.155 24.254 101.043 24.7067 101.043 25.22C101.043 25.724 101.155 26.1813 101.379 26.592C101.603 27.0027 101.901 27.3247 102.275 27.558C102.657 27.7913 103.087 27.908 103.563 27.908ZM111.351 29.168C110.856 29.168 110.418 29.0793 110.035 28.902C109.662 28.7153 109.368 28.4633 109.153 28.146C108.938 27.8193 108.831 27.446 108.831 27.026C108.831 26.6247 108.915 26.2653 109.083 25.948C109.26 25.6213 109.531 25.346 109.895 25.122C110.268 24.898 110.735 24.7393 111.295 24.646L114.095 24.184V25.276L111.589 25.696C111.104 25.78 110.749 25.934 110.525 26.158C110.31 26.382 110.203 26.6573 110.203 26.984C110.203 27.292 110.324 27.5487 110.567 27.754C110.819 27.9593 111.132 28.062 111.505 28.062C111.981 28.062 112.392 27.964 112.737 27.768C113.092 27.5627 113.367 27.2873 113.563 26.942C113.768 26.5967 113.871 26.214 113.871 25.794V23.876C113.871 23.4653 113.717 23.134 113.409 22.882C113.11 22.6207 112.714 22.49 112.219 22.49C111.79 22.49 111.407 22.602 111.071 22.826C110.744 23.0407 110.502 23.33 110.343 23.694L109.209 23.106C109.349 22.7607 109.573 22.4527 109.881 22.182C110.189 21.902 110.548 21.6827 110.959 21.524C111.37 21.3653 111.799 21.286 112.247 21.286C112.826 21.286 113.334 21.398 113.773 21.622C114.212 21.8367 114.552 22.14 114.795 22.532C115.047 22.9147 115.173 23.3627 115.173 23.876V29H113.899V27.572L114.137 27.656C113.978 27.9547 113.764 28.216 113.493 28.44C113.222 28.664 112.905 28.8413 112.541 28.972C112.177 29.1027 111.78 29.168 111.351 29.168ZM117.192 29V21.454H118.466V22.84L118.326 22.644C118.503 22.2147 118.774 21.8973 119.138 21.692C119.502 21.4773 119.945 21.37 120.468 21.37H120.93V22.602H120.272C119.74 22.602 119.31 22.77 118.984 23.106C118.657 23.4327 118.494 23.8993 118.494 24.506V29H117.192ZM125.516 29.168C124.807 29.168 124.167 28.9953 123.598 28.65C123.038 28.3047 122.595 27.8333 122.268 27.236C121.941 26.6387 121.778 25.9713 121.778 25.234C121.778 24.478 121.941 23.806 122.268 23.218C122.595 22.6207 123.038 22.1493 123.598 21.804C124.167 21.4587 124.807 21.286 125.516 21.286C126.141 21.286 126.697 21.4213 127.182 21.692C127.667 21.9533 128.05 22.308 128.33 22.756L128.12 23.078V18.402H129.436V29H128.162V27.39L128.33 27.614C128.069 28.1087 127.686 28.4913 127.182 28.762C126.687 29.0327 126.132 29.168 125.516 29.168ZM125.628 27.908C126.104 27.908 126.529 27.7913 126.902 27.558C127.275 27.3247 127.569 27.0073 127.784 26.606C128.008 26.1953 128.12 25.738 128.12 25.234C128.12 24.7207 128.008 24.2633 127.784 23.862C127.569 23.4513 127.275 23.1293 126.902 22.896C126.529 22.6627 126.104 22.546 125.628 22.546C125.161 22.546 124.737 22.6673 124.354 22.91C123.981 23.1433 123.687 23.4607 123.472 23.862C123.257 24.254 123.15 24.7113 123.15 25.234C123.15 25.738 123.257 26.1953 123.472 26.606C123.687 27.0073 123.981 27.3247 124.354 27.558C124.727 27.7913 125.152 27.908 125.628 27.908Z" fill="#393939"/>
</svg>
