<svg width="18" height="18" viewBox="0 0 18 18" fill="none" xmlns="http://www.w3.org/2000/svg">
<path d="M11.6743 17.4917C11.4993 17.4917 11.3243 17.4667 11.1493 17.425C10.6327 17.2834 10.1993 16.9584 9.92435 16.5L9.82435 16.3334C9.33268 15.4834 8.65768 15.4834 8.16601 16.3334L8.07435 16.4917C7.79935 16.9584 7.36601 17.2917 6.84935 17.425C6.32435 17.5667 5.78268 17.4917 5.32435 17.2167L3.89102 16.3917C3.38268 16.1 3.01602 15.625 2.85768 15.05C2.70768 14.475 2.78268 13.8834 3.07435 13.375C3.31602 12.95 3.38268 12.5667 3.24102 12.325C3.09935 12.0834 2.74102 11.9417 2.24935 11.9417C1.03268 11.9417 0.0410156 10.95 0.0410156 9.73336V8.2667C0.0410156 7.05003 1.03268 6.05836 2.24935 6.05836C2.74102 6.05836 3.09935 5.9167 3.24102 5.67503C3.38268 5.43336 3.32435 5.05003 3.07435 4.62503C2.78268 4.1167 2.70768 3.5167 2.85768 2.95003C3.00768 2.37503 3.37435 1.90003 3.89102 1.60836L5.33268 0.783364C6.27435 0.22503 7.51601 0.55003 8.08268 1.50836L8.18268 1.67503C8.67435 2.52503 9.34935 2.52503 9.84101 1.67503L9.93268 1.5167C10.4993 0.55003 11.741 0.22503 12.691 0.791697L14.1243 1.6167C14.6327 1.90836 14.9993 2.38336 15.1577 2.95836C15.3077 3.53336 15.2327 4.12503 14.941 4.63336C14.6993 5.05836 14.6327 5.4417 14.7743 5.68336C14.916 5.92503 15.2743 6.0667 15.766 6.0667C16.9827 6.0667 17.9743 7.05836 17.9743 8.27503V9.7417C17.9743 10.9584 16.9827 11.95 15.766 11.95C15.2743 11.95 14.916 12.0917 14.7743 12.3334C14.6327 12.575 14.691 12.9584 14.941 13.3834C15.2327 13.8917 15.316 14.4917 15.1577 15.0584C15.0077 15.6334 14.641 16.1084 14.1243 16.4L12.6827 17.225C12.366 17.4 12.0243 17.4917 11.6743 17.4917ZM8.99935 14.4084C9.74101 14.4084 10.4327 14.875 10.9077 15.7L10.9993 15.8584C11.0993 16.0334 11.266 16.1584 11.466 16.2084C11.666 16.2584 11.866 16.2334 12.0327 16.1334L13.4743 15.3C13.691 15.175 13.8577 14.9667 13.9243 14.7167C13.991 14.4667 13.9577 14.2084 13.8327 13.9917C13.3577 13.175 13.2993 12.3334 13.666 11.6917C14.0327 11.05 14.791 10.6834 15.741 10.6834C16.2743 10.6834 16.6993 10.2584 16.6993 9.72503V8.25836C16.6993 7.73336 16.2743 7.30003 15.741 7.30003C14.791 7.30003 14.0327 6.93336 13.666 6.2917C13.2993 5.65003 13.3577 4.80836 13.8327 3.9917C13.9577 3.77503 13.991 3.5167 13.9243 3.2667C13.8577 3.0167 13.6993 2.8167 13.4827 2.68336L12.041 1.85836C11.6827 1.6417 11.2077 1.7667 10.991 2.13336L10.8993 2.2917C10.4243 3.1167 9.73268 3.58336 8.99101 3.58336C8.24935 3.58336 7.55768 3.1167 7.08268 2.2917L6.99101 2.12503C6.78268 1.77503 6.31602 1.65003 5.95768 1.85836L4.51602 2.6917C4.29935 2.8167 4.13268 3.02503 4.06602 3.27503C3.99935 3.52503 4.03268 3.78336 4.15768 4.00003C4.63268 4.8167 4.69102 5.65836 4.32435 6.30003C3.95768 6.9417 3.19935 7.30836 2.24935 7.30836C1.71602 7.30836 1.29102 7.73336 1.29102 8.2667V9.73336C1.29102 10.2584 1.71602 10.6917 2.24935 10.6917C3.19935 10.6917 3.95768 11.0584 4.32435 11.7C4.69102 12.3417 4.63268 13.1834 4.15768 14C4.03268 14.2167 3.99935 14.475 4.06602 14.725C4.13268 14.975 4.29102 15.175 4.50768 15.3084L5.94935 16.1334C6.12435 16.2417 6.33268 16.2667 6.52435 16.2167C6.72435 16.1667 6.89102 16.0334 6.99935 15.8584L7.09101 15.7C7.56601 14.8834 8.25768 14.4084 8.99935 14.4084Z" fill="#8E98A8"/>
</svg>
