<svg width="20" height="20" viewBox="0 0 20 20" fill="none" xmlns="http://www.w3.org/2000/svg">
<path d="M15.9326 12.45L16.1993 12.9917C16.3326 13.2583 16.6743 13.5083 16.9576 13.5583L17.3159 13.6167C18.4076 13.8 18.6576 14.6 17.8826 15.3833L17.5493 15.7167C17.3243 15.9417 17.2076 16.375 17.2743 16.6917L17.3159 16.8917C17.6159 18.2083 16.9159 18.7167 15.7743 18.025L15.5326 17.875C15.2409 17.7 14.7576 17.7 14.4659 17.875L14.2243 18.025C13.0743 18.7167 12.3826 18.2083 12.6826 16.8917L12.7243 16.6917C12.7909 16.3833 12.6743 15.9417 12.4493 15.7167L12.1159 15.3833C11.3409 14.5917 11.5909 13.8 12.6826 13.6167L13.0409 13.5583C13.3326 13.5083 13.6659 13.2583 13.7993 12.9917L14.0659 12.45C14.5826 11.4083 15.4159 11.4083 15.9326 12.45Z" fill="#393939"/>
<path d="M13.491 1.66666H6.50768C3.47435 1.66666 1.66602 3.47499 1.66602 6.50832V13.4917C1.66602 16.525 3.47435 18.3333 6.50768 18.3333H10.9077C11.1993 18.3333 11.4077 18.0333 11.3743 17.7417C11.341 17.425 11.3577 17.05 11.4577 16.6167C11.4743 16.5583 11.4577 16.4917 11.4077 16.4417L11.2243 16.2583C10.516 15.5417 10.2577 14.675 10.5077 13.8833C10.766 13.1 11.4827 12.55 12.4743 12.3833L12.7243 12.3417L12.9493 11.8917C13.4077 10.9583 14.1577 10.4167 14.9993 10.4167C15.841 10.4167 16.591 10.9583 17.0493 11.8917L17.1743 12.15C17.2327 12.275 17.3493 12.3583 17.4827 12.3833C17.5577 12.4 17.6327 12.4167 17.7077 12.4333C17.9993 12.5083 18.3327 12.275 18.3327 11.9667V6.50832C18.3327 3.47499 16.5244 1.66666 13.491 1.66666ZM13.5493 7.46666L11.6243 9.94999C11.3827 10.2583 11.041 10.4583 10.6493 10.5C10.266 10.55 9.87435 10.4417 9.57435 10.2L8.04935 9.01666C7.99102 8.96666 7.92435 8.96666 7.89102 8.97499C7.85768 8.97499 7.79935 8.99166 7.74935 9.05832L5.76602 11.6333C5.64102 11.7917 5.45768 11.875 5.26602 11.875C5.13268 11.875 4.99935 11.8333 4.88268 11.7417C4.60768 11.5333 4.55768 11.1417 4.76602 10.8667L6.74935 8.29166C6.99102 7.98332 7.33268 7.78332 7.72435 7.73332C8.11602 7.68332 8.49935 7.79166 8.80768 8.03332L10.3327 9.23332C10.391 9.28332 10.4493 9.27499 10.491 9.27499C10.5243 9.27499 10.5827 9.25832 10.6327 9.19166L12.5577 6.70832C12.766 6.43332 13.1577 6.38332 13.4327 6.59999C13.716 6.80832 13.7577 7.19999 13.5493 7.46666Z"  fill="#8E98A8"/>
</svg>
